<?xml version="1.0" encoding="UTF-8" standalone="no"?>
<!-- Created with Inkscape (http://www.inkscape.org/) -->

<svg
   xmlns:dc="http://purl.org/dc/elements/1.1/"
   xmlns:cc="http://creativecommons.org/ns#"
   xmlns:rdf="http://www.w3.org/1999/02/22-rdf-syntax-ns#"
   xmlns:svg="http://www.w3.org/2000/svg"
   xmlns="http://www.w3.org/2000/svg"
   xmlns:sodipodi="http://sodipodi.sourceforge.net/DTD/sodipodi-0.dtd"
   xmlns:inkscape="http://www.inkscape.org/namespaces/inkscape"
   version="1.1"
   width="800"
   height="800"
   id="svg2"
   inkscape:version="0.48.0 r9654"
   sodipodi:docname="Asian_Elephant_Icon.svg">
  <sodipodi:namedview
     pagecolor="#ffffff"
     bordercolor="#666666"
     borderopacity="1"
     objecttolerance="10"
     gridtolerance="10"
     guidetolerance="10"
     inkscape:pageopacity="0"
     inkscape:pageshadow="2"
     inkscape:window-width="1280"
     inkscape:window-height="753"
     id="namedview7"
     showgrid="false"
     inkscape:zoom="0.63919964"
     inkscape:cx="400"
     inkscape:cy="400"
     inkscape:window-x="-4"
     inkscape:window-y="-4"
     inkscape:window-maximized="1"
     inkscape:current-layer="svg2" />
  <defs
     id="defs4" />
  <metadata
     id="metadata7">
    <rdf:RDF>
      <cc:Work
         rdf:about="">
        <dc:format>image/svg+xml</dc:format>
        <dc:type
           rdf:resource="http://purl.org/dc/dcmitype/StillImage" />
        <dc:title />
      </cc:Work>
    </rdf:RDF>
  </metadata>
  <rect
     style="fill:#ffffff;fill-opacity:1;stroke:none"
     id="rect2984"
     width="788.48602"
     height="783.79266"
     x="6.2578259"
     y="9.9494925" />
  <g
     transform="translate(0,-252.36218)"
     id="layer1">
    <path
       d="M 226.10117,469.34852 C 217.66957,469.32882 208.39157,471.52287 197.86519,477.47119 173.45511,491.26501 167.45649,531.85435 165.03601,538.05285 160.82283,548.84218 146.58914,547.58405 140.37788,555.50696 132.88734,565.06168 127.03347,589.3998 127.03347,589.3998 127.03347,589.3998 118.8202,607.19255 114.7044,616.08862 103.77243,639.71747 89.736347,662.164 81.826877,686.96867 76.115897,704.87876 73.829047,723.76215 71.576837,742.42532 67.089372,779.27185 58.236527,831.75446 73.607497,873.8387 80.378157,886.691 96.823037,889.4744 109.57938,891.29279 123.23992,893.24006 141.39321,882.05807 141.39321,882.05807 L 128.0488,869.729 127.03347,858.46362 C 127.03347,858.46362 110.88369,871.46828 102.37533,865.66767 91.568507,858.30006 97.250307,824.57076 97.250307,824.57076 97.250307,824.57076 101.89074,795.634 105.46968,781.44319 110.4733,761.60349 111.2632,738.9537 123.93912,722.8922 128.88521,716.62507 138.66628,716.02695 144.48756,710.56314 153.27993,702.31067 176.3014,684.88966 176.3014,684.88966 176.3014,684.88966 175.80177,679.52684 179.39575,682.85899 184.96918,688.02639 175.59474,692.74567 176.3014,700.31308 176.80461,705.7019 172.05217,712.62519 177.36508,713.65749 189.28305,715.97317 200.95954,685.95334 200.95954,685.95334 200.95954,685.95334 215.43325,687.13792 222.52332,685.95334 233.94773,684.04459 255.40084,674.63961 255.40084,674.63961 L 264.63556,682.85899 C 264.63556,682.85899 269.51888,692.31072 273.87027,692.0937 278.72926,691.85136 283.10498,680.77996 283.10498,680.77996 283.10498,680.77996 293.32518,686.93591 295.43406,692.0937 297.89888,698.122 295.93184,714.35489 295.43406,721.87687 294.39038,737.64766 296.44939,757.80039 296.44939,757.80039 296.44939,757.80039 317.07554,857.49338 312.88815,905.79757 312.14026,914.42485 302.16453,926.30651 309.84215,926.78117 340.58904,928.68204 366.31411,926.78117 366.31411,926.78117 377.11915,899.05473 380.47914,815.33437 370.42381,763.9891 370.65028,764.04573 404.27688,843.33901 413.55138,875.91771 416.64563,886.787 418.47107,895.53313 420.70706,905.70088 422.32615,913.06336 408.49645,925.52266 415.58205,926.78117 431.84509,929.66968 470.02334,926.78117 470.02334,926.78117 487.32931,926.49274 471.42009,873.11511 466.92899,839.99419 L 446.38054,763.9891 451.55392,757.80039 C 478.54636,761.3716 505.09707,766.21444 534.7147,761.91009 558.22842,755.85374 578.22407,753.35396 606.6101,742.42532 606.6101,742.42532 611.97358,764.51278 614.82948,774.23915 617.51588,783.38833 629.18922,813.25702 629.18922,813.25702 629.18922,813.25702 631.09942,845.49105 630.20455,861.55797 629.34037,877.07383 628.89274,892.96084 624.06419,907.73154 621.39882,915.885 608.28308,928.19856 616.86015,928.32834 634.1566,928.59009 645.59444,930.46945 670.28611,926.78117 689.25677,923.94743 674.83032,891.93795 676.42647,872.82335 677.56049,859.24289 684.64585,832.79014 684.64585,832.79014 684.64585,832.79014 697.0261,795.84173 703.11529,777.33351 711.77572,751.00989 724.67906,692.0937 724.67906,692.0937 742.41787,742.98185 728.87627,786.2245 723.66373,839.99419 723.53544,848.72027 717.29218,865.76263 725.69441,872.82335 737.95522,881.60861 735.58586,852.33035 735.9928,846.13455 735.9928,846.13455 737.99374,819.44581 739.08715,806.10134 742.31397,766.72006 750.59416,727.47726 749.33721,687.98402 746.98001,627.58675 704.93738,563.33742 653.31551,522.67778 612.04175,495.755 560.49312,482.96793 511.0719,476.45586 471.99145,471.30636 429.65292,484.17097 393.00293,482.59622 373.65727,481.765 349.34185,478.67735 332.42126,479.55022 315.5076,480.42274 310.29932,486.55474 293.40339,487.72125 269.44721,489.37521 251.39596,469.40761 226.10117,469.34852 z M 296.45272,505.16891 C 305.73838,507.24851 312.86776,518.14261 320.32498,549.82507 324.95919,569.51381 329.02244,579.52358 323.15865,590.17887 314.83484,605.30439 303.22133,609.8973 280.82052,630.7375 272.37088,638.5985 244.29627,615.09562 243.33191,601.71865 240.82147,594.43748 241.47168,585.71343 242.53993,578.08608 243.57686,570.68235 248.72863,556.52229 248.72863,556.52229 248.72863,556.52229 241.37408,585.41591 246.16612,598.63453 252.23569,615.37714 262.60696,630.12011 277.73821,627.41465 282.51532,626.5605 300.55433,609.70651 300.55433,609.70651 326.83962,589.69672 321.54819,582.01294 318.817,566.67064 315.22669,546.50225 310.22568,515.20254 296.76591,510.3203 281.12303,504.64619 260.88876,504.70896 250.51549,506.72252 243.12004,508.15805 234.8524,521.6141 234.8524,521.6141 234.8524,521.6141 238.29566,507.96175 244.61895,504.69185 254.04544,501.04616 275.3123,500.43434 296.45272,505.16891 z M 168.95231,583.93633 C 172.24111,584.03596 174.83475,586.59388 174.75422,589.68991 L 174.75422,589.73826 C 174.6478,592.85052 171.87229,595.30189 168.56552,595.20173 165.25873,595.10155 162.65716,592.51208 162.7636,589.3998 162.87003,586.28754 165.64552,583.83617 168.95231,583.93633 z"
       id="path2996"
       style="fill:#000000;stroke:#000000;stroke-width:1.54717743px;stroke-linecap:butt;stroke-linejoin:miter;stroke-opacity:1" />
  </g>
</svg>
